<?xml version="1.0" encoding="UTF-8"?>
<svg xmlns="http://www.w3.org/2000/svg" xmlns:xlink="http://www.w3.org/1999/xlink" width="375pt" height="374.999991pt" viewBox="0 0 375 374.999991" version="1.2">
<defs>
<clipPath id="clip1">
  <path d="M 99 145 L 375 145 L 375 241 L 99 241 Z M 99 145 "/>
</clipPath>
<clipPath id="clip2">
  <path d="M 374.988281 207.394531 L 231.359375 342.589844 L 99.246094 202.234375 L 242.878906 67.039062 Z M 374.988281 207.394531 "/>
</clipPath>
<clipPath id="clip3">
  <path d="M 374.988281 207.394531 L 231.359375 342.589844 L 99.246094 202.234375 L 242.878906 67.039062 Z M 374.988281 207.394531 "/>
</clipPath>
<clipPath id="clip4">
  <path d="M 374.90625 207.46875 L 231.355469 342.589844 L 99.082031 202.066406 L 242.636719 66.945312 Z M 374.90625 207.46875 "/>
</clipPath>
<clipPath id="clip5">
  <path d="M 374.90625 207.46875 L 231.4375 342.515625 L 99.34375 202.179688 L 242.8125 67.132812 Z M 374.90625 207.46875 "/>
</clipPath>
<clipPath id="clip6">
  <path d="M 128 159 L 356 159 L 356 226 L 128 226 Z M 128 159 "/>
</clipPath>
<clipPath id="clip7">
  <path d="M 374.988281 207.394531 L 231.359375 342.589844 L 99.246094 202.234375 L 242.878906 67.039062 Z M 374.988281 207.394531 "/>
</clipPath>
<clipPath id="clip8">
  <path d="M 374.988281 207.394531 L 231.359375 342.589844 L 99.246094 202.234375 L 242.878906 67.039062 Z M 374.988281 207.394531 "/>
</clipPath>
</defs>
<g id="surface1">
<path style=" stroke:none;fill-rule:nonzero;fill:rgb(7.449341%,23.139954%,54.119873%);fill-opacity:1;" d="M 317.625 343.375 L 20.636719 343.375 C 9.265625 343.375 0 334.113281 0 322.742188 L 0 46.753906 C 0 35.382812 9.265625 26.121094 20.636719 26.121094 L 317.625 26.121094 C 328.996094 26.121094 338.261719 35.382812 338.261719 46.753906 L 338.261719 322.742188 C 338.261719 334.113281 328.996094 343.375 317.625 343.375 Z M 317.625 343.375 "/>
<g clip-path="url(#clip1)" clip-rule="nonzero">
<g clip-path="url(#clip2)" clip-rule="nonzero">
<g clip-path="url(#clip3)" clip-rule="nonzero">
<g clip-path="url(#clip4)" clip-rule="nonzero">
<g clip-path="url(#clip5)" clip-rule="nonzero">
<path style=" stroke:none;fill-rule:nonzero;fill:rgb(10.198975%,64.709473%,90.589905%);fill-opacity:1;" d="M 128.507812 179.246094 C 149.960938 165.914062 229.507812 124.535156 289.152344 159.339844 C 335.609375 186.449219 374.90625 207.46875 374.90625 207.46875 C 374.90625 207.46875 299.421875 253.746094 241.921875 236.851562 C 184.414062 219.957031 144.789062 181.296875 128.761719 185.496094 C 119.5 187.921875 105.050781 202.941406 105.050781 202.941406 L 99.667969 202.527344 C 99.667969 202.527344 107.050781 192.578125 128.507812 179.246094 "/>
</g>
</g>
</g>
</g>
</g>
<g clip-path="url(#clip6)" clip-rule="nonzero">
<g clip-path="url(#clip7)" clip-rule="nonzero">
<g clip-path="url(#clip8)" clip-rule="nonzero">
<path style=" stroke:none;fill-rule:nonzero;fill:rgb(7.449341%,23.139954%,54.119873%);fill-opacity:1;" d="M 262.074219 223.980469 C 262.105469 224 262.136719 224.015625 262.164062 224.03125 C 262.136719 224.015625 262.109375 224 262.074219 223.980469 Z M 262.285156 224.136719 C 262.328125 224.25 262.273438 224.457031 262.285156 224.441406 L 262.5625 223.925781 C 262.570312 223.90625 262.429688 224.066406 262.3125 224.082031 C 262.265625 224.085938 262.214844 224.0625 262.164062 224.03125 C 262.21875 224.0625 262.261719 224.089844 262.285156 224.136719 Z M 128.867188 182.003906 C 128.867188 182.003906 132.382812 181.082031 138.632812 179.914062 C 141.757812 179.328125 145.5625 178.6875 149.953125 178.078125 C 154.339844 177.480469 159.304688 176.882812 164.746094 176.476562 C 167.886719 176.238281 171.195312 176.050781 174.628906 175.925781 C 174.710938 175.8125 174.804688 175.6875 174.914062 175.542969 C 175.128906 175.246094 175.398438 174.890625 175.703125 174.480469 C 176.007812 174.070312 176.339844 173.597656 176.757812 173.128906 C 177.164062 172.648438 177.605469 172.125 178.070312 171.574219 C 178.523438 171.011719 179.089844 170.496094 179.625 169.921875 C 179.898438 169.640625 180.171875 169.351562 180.460938 169.066406 C 180.761719 168.796875 181.066406 168.523438 181.375 168.246094 C 181.683594 167.972656 181.992188 167.691406 182.304688 167.414062 C 182.636719 167.15625 182.96875 166.902344 183.296875 166.644531 C 183.632812 166.390625 183.957031 166.125 184.300781 165.882812 C 184.648438 165.65625 185 165.425781 185.34375 165.203125 C 186.019531 164.726562 186.757812 164.378906 187.445312 163.992188 C 187.785156 163.800781 188.152344 163.664062 188.496094 163.503906 C 188.839844 163.355469 189.171875 163.191406 189.519531 163.082031 C 189.859375 162.960938 190.1875 162.847656 190.507812 162.734375 C 190.832031 162.636719 191.152344 162.5625 191.457031 162.476562 C 191.757812 162.390625 192.054688 162.335938 192.335938 162.289062 C 192.621094 162.242188 192.882812 162.171875 193.136719 162.15625 C 193.390625 162.128906 193.628906 162.101562 193.847656 162.082031 C 194.070312 162.070312 194.273438 162.0625 194.457031 162.058594 C 194.820312 162.054688 195.109375 162.066406 195.304688 162.085938 C 195.5 162.101562 195.601562 162.121094 195.601562 162.121094 C 195.601562 162.121094 195.5 162.105469 195.304688 162.09375 C 195.109375 162.074219 194.820312 162.074219 194.457031 162.082031 C 194.273438 162.09375 194.070312 162.105469 193.851562 162.117188 C 193.632812 162.144531 193.398438 162.175781 193.144531 162.210938 C 192.894531 162.230469 192.628906 162.304688 192.347656 162.359375 C 192.070312 162.410156 191.777344 162.472656 191.480469 162.566406 C 191.179688 162.65625 190.863281 162.738281 190.542969 162.84375 C 190.226562 162.960938 189.902344 163.082031 189.566406 163.210938 C 189.226562 163.324219 188.902344 163.492188 188.5625 163.652344 C 188.222656 163.816406 187.867188 163.960938 187.53125 164.15625 C 186.859375 164.554688 186.136719 164.914062 185.476562 165.402344 C 185.136719 165.632812 184.796875 165.867188 184.453125 166.101562 C 184.121094 166.347656 183.804688 166.617188 183.480469 166.875 C 183.15625 167.136719 182.835938 167.398438 182.511719 167.65625 C 182.210938 167.941406 181.910156 168.222656 181.609375 168.503906 C 181.3125 168.785156 181.015625 169.0625 180.722656 169.335938 C 180.445312 169.621094 180.179688 169.917969 179.914062 170.199219 C 179.394531 170.78125 178.847656 171.300781 178.410156 171.871094 C 177.960938 172.425781 177.539062 172.949219 177.148438 173.433594 C 176.742188 173.910156 176.421875 174.386719 176.128906 174.796875 C 175.835938 175.210938 175.578125 175.570312 175.371094 175.867188 C 175.363281 175.878906 175.355469 175.886719 175.351562 175.898438 C 183.601562 175.625 192.605469 175.753906 202.003906 176.609375 C 205.941406 176.980469 209.949219 177.484375 213.988281 178.136719 C 214.238281 177.425781 215.042969 175.316406 216.695312 172.730469 C 217.21875 171.941406 217.792969 171.09375 218.476562 170.25 C 219.152344 169.402344 219.90625 168.542969 220.746094 167.714844 C 221.574219 166.867188 222.515625 166.085938 223.488281 165.316406 C 224.484375 164.582031 225.519531 163.859375 226.625 163.253906 C 227.710938 162.625 228.859375 162.101562 230.003906 161.632812 C 230.578125 161.398438 231.164062 161.210938 231.734375 161.003906 C 232.308594 160.820312 232.890625 160.664062 233.453125 160.5 C 234.023438 160.355469 234.589844 160.238281 235.144531 160.113281 C 235.699219 159.992188 236.25 159.925781 236.78125 159.832031 C 237.308594 159.734375 237.835938 159.695312 238.339844 159.640625 C 238.84375 159.59375 239.332031 159.527344 239.800781 159.519531 C 240.742188 159.476562 241.601562 159.425781 242.367188 159.457031 C 243.132812 159.46875 243.796875 159.464844 244.34375 159.515625 C 245.4375 159.589844 246.0625 159.632812 246.0625 159.632812 C 246.0625 159.632812 245.4375 159.597656 244.34375 159.542969 C 243.796875 159.496094 243.128906 159.511719 242.367188 159.511719 C 241.601562 159.492188 240.746094 159.554688 239.808594 159.609375 C 239.335938 159.625 238.851562 159.699219 238.351562 159.753906 C 237.847656 159.8125 237.328125 159.859375 236.800781 159.964844 C 236.273438 160.066406 235.726562 160.140625 235.179688 160.269531 C 234.628906 160.40625 234.066406 160.527344 233.503906 160.679688 C 232.945312 160.851562 232.371094 161.015625 231.800781 161.207031 C 231.238281 161.417969 230.660156 161.609375 230.09375 161.851562 C 228.96875 162.335938 227.839844 162.867188 226.769531 163.511719 C 225.683594 164.121094 224.675781 164.855469 223.699219 165.59375 C 222.75 166.363281 221.835938 167.152344 221.03125 167.996094 C 220.214844 168.824219 219.480469 169.683594 218.832031 170.527344 C 218.167969 171.363281 217.617188 172.210938 217.113281 172.996094 C 216.136719 174.582031 215.464844 175.984375 215.050781 176.984375 C 214.816406 177.539062 214.664062 177.960938 214.574219 178.230469 C 217.3125 178.683594 220.066406 179.203125 222.820312 179.808594 C 229.832031 181.339844 236.863281 183.390625 243.667969 186.050781 C 247.070312 187.378906 250.414062 188.863281 253.667969 190.5 C 253.832031 190.578125 253.996094 190.660156 254.160156 190.738281 C 254.207031 190.511719 254.292969 190.226562 254.410156 189.867188 C 254.488281 189.667969 254.570312 189.445312 254.660156 189.203125 C 254.769531 188.972656 254.886719 188.722656 255.011719 188.457031 C 255.128906 188.183594 255.304688 187.921875 255.46875 187.632812 C 255.636719 187.351562 255.808594 187.046875 256.035156 186.761719 C 256.25 186.472656 256.464844 186.160156 256.707031 185.855469 C 256.96875 185.566406 257.238281 185.265625 257.515625 184.960938 C 257.777344 184.636719 258.117188 184.375 258.429688 184.078125 C 258.761719 183.800781 259.0625 183.464844 259.4375 183.21875 C 260.164062 182.6875 260.894531 182.113281 261.730469 181.671875 C 262.140625 181.433594 262.542969 181.183594 262.960938 180.960938 C 263.394531 180.761719 263.828125 180.558594 264.261719 180.359375 C 264.699219 180.171875 265.117188 179.929688 265.570312 179.785156 C 266.015625 179.625 266.460938 179.46875 266.90625 179.308594 C 267.347656 179.160156 267.78125 178.984375 268.222656 178.859375 C 268.667969 178.742188 269.105469 178.625 269.539062 178.511719 C 270.402344 178.292969 271.230469 178.035156 272.039062 177.917969 C 272.847656 177.773438 273.609375 177.636719 274.308594 177.507812 C 275.007812 177.359375 275.664062 177.328125 276.238281 177.253906 C 276.8125 177.195312 277.316406 177.140625 277.730469 177.09375 C 278.554688 177.003906 279.027344 176.953125 279.027344 176.953125 C 279.027344 176.953125 278.558594 177.011719 277.730469 177.121094 C 277.320312 177.171875 276.820312 177.238281 276.246094 177.308594 C 275.671875 177.394531 275.019531 177.433594 274.324219 177.597656 C 273.625 177.738281 272.867188 177.890625 272.070312 178.050781 C 271.265625 178.183594 270.445312 178.457031 269.589844 178.691406 C 269.160156 178.8125 268.726562 178.933594 268.285156 179.058594 C 267.847656 179.191406 267.425781 179.378906 266.984375 179.535156 C 266.550781 179.699219 266.109375 179.867188 265.671875 180.03125 C 265.222656 180.183594 264.816406 180.429688 264.386719 180.625 C 263.960938 180.832031 263.535156 181.035156 263.113281 181.242188 C 262.703125 181.472656 262.3125 181.730469 261.914062 181.964844 C 261.097656 182.421875 260.394531 183 259.691406 183.53125 C 259.324219 183.78125 259.039062 184.113281 258.722656 184.394531 C 258.417969 184.6875 258.09375 184.949219 257.84375 185.265625 C 257.582031 185.570312 257.324219 185.867188 257.078125 186.152344 C 256.847656 186.453125 256.644531 186.757812 256.441406 187.042969 C 256.230469 187.320312 256.070312 187.617188 255.914062 187.894531 C 255.761719 188.171875 255.597656 188.425781 255.492188 188.691406 C 255.375 188.949219 255.265625 189.191406 255.167969 189.414062 C 255.085938 189.644531 255.011719 189.855469 254.941406 190.046875 C 254.824219 190.425781 254.738281 190.742188 254.707031 190.941406 C 254.703125 190.960938 254.699219 190.980469 254.695312 191.003906 C 255.972656 191.632812 257.253906 192.261719 258.527344 192.886719 C 260.160156 193.632812 261.785156 194.378906 263.40625 195.117188 C 268.863281 197.519531 274.367188 199.617188 279.824219 201.398438 C 279.863281 201.355469 279.921875 201.289062 279.996094 201.203125 C 280.144531 201.03125 280.367188 200.796875 280.652344 200.503906 C 280.945312 200.210938 281.296875 199.859375 281.714844 199.472656 C 282.136719 199.082031 282.613281 198.652344 283.15625 198.207031 C 283.683594 197.746094 284.300781 197.296875 284.933594 196.800781 C 285.589844 196.339844 286.269531 195.832031 287.007812 195.363281 C 287.75 194.894531 288.511719 194.40625 289.324219 193.972656 C 289.726562 193.753906 290.125 193.511719 290.542969 193.304688 C 290.960938 193.101562 291.378906 192.898438 291.800781 192.695312 C 292.628906 192.265625 293.511719 191.953125 294.355469 191.589844 C 294.777344 191.40625 295.207031 191.261719 295.636719 191.121094 C 296.0625 190.976562 296.484375 190.835938 296.898438 190.695312 C 297.308594 190.546875 297.726562 190.433594 298.132812 190.335938 C 298.539062 190.226562 298.941406 190.125 299.324219 190.023438 C 300.09375 189.800781 300.847656 189.683594 301.535156 189.554688 C 302.222656 189.441406 302.847656 189.289062 303.414062 189.238281 C 303.976562 189.179688 304.46875 189.128906 304.875 189.085938 C 305.683594 189 306.148438 188.953125 306.148438 188.953125 C 306.148438 188.953125 305.683594 189.007812 304.878906 189.113281 C 304.476562 189.160156 303.984375 189.222656 303.421875 189.292969 C 302.855469 189.351562 302.234375 189.519531 301.550781 189.644531 C 300.867188 189.785156 300.125 189.917969 299.363281 190.15625 C 298.976562 190.265625 298.582031 190.375 298.179688 190.488281 C 297.773438 190.597656 297.363281 190.714844 296.957031 190.871094 C 296.546875 191.019531 296.128906 191.167969 295.707031 191.320312 C 295.285156 191.464844 294.859375 191.617188 294.445312 191.8125 C 293.613281 192.1875 292.746094 192.515625 291.929688 192.957031 C 291.515625 193.171875 291.101562 193.378906 290.691406 193.589844 C 290.28125 193.804688 289.894531 194.050781 289.5 194.273438 C 288.699219 194.714844 287.957031 195.222656 287.234375 195.699219 C 286.507812 196.175781 285.84375 196.691406 285.203125 197.160156 C 284.589844 197.664062 283.988281 198.117188 283.480469 198.582031 C 282.949219 199.03125 282.488281 199.46875 282.082031 199.859375 C 281.675781 200.246094 281.335938 200.601562 281.058594 200.890625 C 280.785156 201.1875 280.570312 201.417969 280.4375 201.578125 C 280.429688 201.585938 280.429688 201.589844 280.425781 201.59375 C 281.296875 201.875 282.167969 202.148438 283.039062 202.414062 C 289.539062 204.398438 295.941406 205.910156 302.058594 207.074219 C 306.5625 207.921875 310.914062 208.550781 315.0625 209 C 315.097656 208.964844 315.136719 208.925781 315.1875 208.882812 C 315.375 208.71875 315.621094 208.441406 315.988281 208.15625 C 316.167969 208.007812 316.367188 207.84375 316.582031 207.667969 C 316.808594 207.5 317.050781 207.324219 317.3125 207.132812 C 317.570312 206.9375 317.863281 206.757812 318.164062 206.558594 C 318.464844 206.355469 318.789062 206.15625 319.132812 205.960938 C 319.472656 205.757812 319.828125 205.550781 320.207031 205.355469 C 320.582031 205.152344 320.972656 204.945312 321.378906 204.75 C 322.191406 204.347656 323.0625 203.953125 323.972656 203.578125 C 325.792969 202.824219 327.773438 202.125 329.78125 201.507812 C 333.792969 200.273438 337.894531 199.363281 340.984375 198.785156 C 344.074219 198.203125 346.152344 197.9375 346.152344 197.9375 C 346.152344 197.9375 344.078125 198.238281 341 198.878906 C 337.925781 199.503906 333.84375 200.488281 329.867188 201.785156 C 327.882812 202.433594 325.921875 203.167969 324.128906 203.949219 C 323.234375 204.335938 322.375 204.742188 321.582031 205.152344 C 321.179688 205.351562 320.800781 205.5625 320.433594 205.769531 C 320.0625 205.96875 319.71875 206.179688 319.386719 206.382812 C 319.050781 206.582031 318.738281 206.785156 318.449219 206.988281 C 318.15625 207.1875 317.871094 207.367188 317.625 207.5625 C 317.375 207.753906 317.140625 207.933594 316.921875 208.097656 C 316.714844 208.273438 316.527344 208.433594 316.351562 208.582031 C 316.132812 208.761719 315.957031 208.933594 315.8125 209.078125 C 317.046875 209.207031 318.261719 209.320312 319.453125 209.417969 C 324.875 209.851562 329.867188 209.957031 334.285156 209.914062 C 338.703125 209.859375 342.554688 209.625 345.714844 209.316406 C 352.039062 208.699219 355.589844 207.890625 355.589844 207.890625 C 355.589844 207.890625 354.707031 208.117188 353.035156 208.441406 C 351.363281 208.765625 348.902344 209.191406 345.742188 209.558594 C 342.582031 209.933594 338.730469 210.25 334.296875 210.390625 C 329.867188 210.539062 324.851562 210.488281 319.402344 210.117188 C 313.953125 209.742188 308.066406 209.058594 301.898438 207.976562 C 301.824219 207.964844 301.742188 207.945312 301.667969 207.933594 C 301.8125 208.109375 302.007812 208.34375 302.28125 208.617188 C 302.578125 208.945312 302.976562 209.316406 303.433594 209.738281 C 303.90625 210.148438 304.445312 210.601562 305.058594 211.070312 C 305.671875 211.539062 306.347656 212.027344 307.082031 212.523438 C 307.816406 213.019531 308.605469 213.519531 309.429688 214.023438 C 311.082031 215.027344 312.894531 216.027344 314.726562 216.976562 C 318.402344 218.878906 322.179688 220.566406 325.039062 221.773438 C 327.898438 222.984375 329.835938 223.707031 329.835938 223.707031 C 329.835938 223.707031 322.027344 220.929688 314.597656 217.238281 C 312.742188 216.320312 310.90625 215.347656 309.226562 214.367188 C 308.386719 213.875 307.582031 213.382812 306.832031 212.898438 C 306.085938 212.410156 305.390625 211.925781 304.757812 211.464844 C 304.128906 211 303.574219 210.546875 303.082031 210.136719 C 302.609375 209.710938 302.191406 209.34375 301.875 209.003906 C 301.542969 208.683594 301.3125 208.402344 301.148438 208.214844 C 300.988281 208.027344 300.902344 207.929688 300.902344 207.929688 L 301.039062 207.820312 C 295.128906 206.757812 288.984375 205.285156 282.738281 203.414062 C 279.582031 202.46875 276.40625 201.410156 273.226562 200.25 C 273.324219 200.464844 273.453125 200.734375 273.605469 201.054688 C 274.027344 201.90625 274.644531 203.125 275.484375 204.53125 C 275.890625 205.246094 276.371094 205.992188 276.875 206.785156 C 277.382812 207.570312 277.953125 208.382812 278.542969 209.21875 C 279.167969 210.035156 279.769531 210.910156 280.46875 211.726562 C 280.8125 212.144531 281.15625 212.5625 281.5 212.984375 C 281.851562 213.398438 282.230469 213.796875 282.59375 214.203125 C 282.964844 214.605469 283.316406 215.027344 283.699219 215.410156 C 284.085938 215.796875 284.472656 216.179688 284.855469 216.558594 C 285.597656 217.339844 286.414062 218.023438 287.175781 218.707031 C 287.925781 219.410156 288.730469 220 289.464844 220.582031 C 289.835938 220.871094 290.199219 221.152344 290.546875 221.425781 C 290.914062 221.675781 291.269531 221.917969 291.609375 222.148438 C 292.292969 222.601562 292.902344 223.046875 293.472656 223.394531 C 294.050781 223.730469 294.554688 224.023438 294.96875 224.261719 C 295.796875 224.746094 296.269531 225.019531 296.269531 225.019531 C 296.269531 225.019531 295.792969 224.753906 294.957031 224.285156 C 294.535156 224.050781 294.027344 223.765625 293.441406 223.441406 C 292.867188 223.101562 292.25 222.667969 291.558594 222.222656 C 291.210938 221.996094 290.855469 221.761719 290.480469 221.515625 C 290.128906 221.25 289.761719 220.976562 289.382812 220.691406 C 288.632812 220.117188 287.820312 219.539062 287.054688 218.847656 C 286.277344 218.175781 285.449219 217.503906 284.691406 216.730469 C 284.300781 216.355469 283.90625 215.976562 283.511719 215.597656 C 283.121094 215.214844 282.757812 214.800781 282.378906 214.402344 C 282.003906 214 281.621094 213.605469 281.257812 213.191406 C 280.90625 212.777344 280.550781 212.359375 280.199219 211.949219 C 279.480469 211.132812 278.863281 210.265625 278.222656 209.457031 C 277.613281 208.625 277.023438 207.816406 276.5 207.03125 C 275.976562 206.242188 275.480469 205.496094 275.058594 204.785156 C 274.191406 203.378906 273.546875 202.160156 273.105469 201.300781 C 272.886719 200.871094 272.71875 200.527344 272.609375 200.289062 C 272.539062 200.128906 272.488281 200.027344 272.464844 199.972656 C 269.292969 198.800781 266.117188 197.527344 262.957031 196.152344 C 261.320312 195.410156 259.664062 194.679688 258.023438 193.921875 C 256.402344 193.128906 254.773438 192.335938 253.140625 191.542969 C 249.929688 189.914062 246.621094 188.433594 243.257812 187.105469 C 240.859375 186.160156 238.4375 185.292969 235.992188 184.496094 C 236.085938 184.804688 236.195312 185.179688 236.335938 185.625 C 236.734375 186.921875 237.34375 188.765625 238.152344 190.949219 C 238.5625 192.039062 239.011719 193.214844 239.523438 194.449219 C 240.023438 195.6875 240.605469 196.96875 241.210938 198.296875 C 241.832031 199.613281 242.488281 200.96875 243.203125 202.320312 C 243.910156 203.675781 244.664062 205.035156 245.460938 206.371094 C 246.253906 207.710938 247.09375 209.019531 247.957031 210.285156 C 248.398438 210.90625 248.835938 211.527344 249.28125 212.132812 C 249.742188 212.722656 250.175781 213.324219 250.640625 213.886719 C 251.558594 215.019531 252.480469 216.085938 253.402344 217.054688 C 254.316406 218.027344 255.234375 218.898438 256.101562 219.679688 C 256.542969 220.058594 256.96875 220.421875 257.375 220.765625 C 257.785156 221.101562 258.195312 221.398438 258.566406 221.6875 C 258.941406 221.984375 259.304688 222.238281 259.648438 222.460938 C 259.988281 222.691406 260.300781 222.902344 260.582031 223.09375 C 261.160156 223.453125 261.628906 223.710938 261.9375 223.898438 C 261.992188 223.925781 262.03125 223.953125 262.074219 223.980469 C 262.03125 223.957031 261.988281 223.933594 261.9375 223.898438 C 261.628906 223.714844 261.15625 223.457031 260.578125 223.097656 C 260.292969 222.910156 259.980469 222.699219 259.640625 222.472656 C 259.296875 222.25 258.929688 222 258.558594 221.703125 C 258.183594 221.414062 257.773438 221.117188 257.355469 220.785156 C 256.953125 220.445312 256.523438 220.082031 256.078125 219.703125 C 255.210938 218.925781 254.289062 218.058594 253.367188 217.089844 C 252.441406 216.121094 251.511719 215.058594 250.589844 213.929688 C 250.121094 213.367188 249.683594 212.769531 249.21875 212.175781 C 248.769531 211.574219 248.332031 210.953125 247.882812 210.332031 C 247.023438 209.066406 246.152344 207.773438 245.34375 206.441406 C 244.53125 205.113281 243.753906 203.761719 243.027344 202.414062 C 242.296875 201.066406 241.621094 199.714844 240.984375 198.402344 C 239.726562 195.765625 238.640625 193.265625 237.773438 191.09375 C 236.476562 187.839844 235.664062 185.335938 235.335938 184.285156 C 231.121094 182.933594 226.859375 181.789062 222.59375 180.84375 C 215.632812 179.292969 208.675781 178.253906 201.914062 177.597656 C 201.886719 177.59375 201.859375 177.589844 201.832031 177.585938 C 201.710938 177.953125 201.53125 178.546875 201.347656 179.371094 C 201.195312 180.089844 201.027344 180.972656 200.925781 181.992188 C 200.828125 183.015625 200.75 184.175781 200.792969 185.441406 C 200.84375 186.707031 200.945312 188.078125 201.222656 189.503906 C 201.5 190.929688 201.863281 192.425781 202.421875 193.914062 C 202.664062 194.667969 203.019531 195.398438 203.328125 196.152344 C 203.507812 196.523438 203.6875 196.890625 203.871094 197.261719 C 204.050781 197.632812 204.238281 198.003906 204.457031 198.359375 C 204.664062 198.722656 204.871094 199.085938 205.082031 199.449219 C 205.296875 199.8125 205.542969 200.15625 205.769531 200.511719 C 206.21875 201.230469 206.738281 201.902344 207.25 202.582031 L 207.632812 203.089844 L 208.042969 203.578125 L 208.867188 204.542969 C 209.417969 205.191406 210.023438 205.777344 210.59375 206.390625 C 211.179688 206.988281 211.804688 207.539062 212.402344 208.105469 C 213 208.667969 213.640625 209.164062 214.246094 209.683594 C 214.847656 210.214844 215.492188 210.660156 216.101562 211.128906 C 216.710938 211.59375 217.3125 212.046875 217.925781 212.445312 C 218.535156 212.855469 219.121094 213.257812 219.695312 213.644531 C 220.28125 214.003906 220.847656 214.351562 221.394531 214.683594 C 222.472656 215.371094 223.511719 215.914062 224.421875 216.414062 C 224.878906 216.664062 225.300781 216.90625 225.699219 217.113281 C 226.101562 217.3125 226.472656 217.496094 226.804688 217.660156 C 228.144531 218.324219 228.90625 218.703125 228.90625 218.703125 C 228.90625 218.703125 228.136719 218.332031 226.796875 217.683594 C 226.457031 217.523438 226.085938 217.34375 225.683594 217.148438 C 225.28125 216.945312 224.855469 216.707031 224.394531 216.464844 C 223.480469 215.96875 222.4375 215.4375 221.347656 214.761719 C 220.796875 214.433594 220.226562 214.09375 219.632812 213.738281 C 219.058594 213.359375 218.460938 212.964844 217.851562 212.558594 C 217.230469 212.167969 216.621094 211.71875 216.007812 211.257812 C 215.386719 210.796875 214.738281 210.351562 214.128906 209.828125 C 213.519531 209.3125 212.867188 208.820312 212.261719 208.261719 C 211.65625 207.699219 211.023438 207.15625 210.429688 206.558594 C 209.847656 205.949219 209.230469 205.367188 208.671875 204.722656 L 207.832031 203.757812 L 207.410156 203.269531 L 207.019531 202.761719 C 206.496094 202.082031 205.96875 201.410156 205.503906 200.691406 C 205.269531 200.335938 205.019531 199.988281 204.800781 199.625 C 204.582031 199.261719 204.367188 198.894531 204.152344 198.53125 C 203.929688 198.171875 203.738281 197.800781 203.550781 197.425781 C 203.359375 197.050781 203.171875 196.679688 202.984375 196.3125 C 202.664062 195.550781 202.300781 194.8125 202.046875 194.050781 C 201.460938 192.546875 201.074219 191.03125 200.78125 189.585938 C 200.484375 188.136719 200.363281 186.742188 200.300781 185.457031 C 200.238281 184.167969 200.304688 182.984375 200.394531 181.9375 C 200.488281 180.894531 200.648438 179.992188 200.800781 179.25 C 200.957031 178.503906 201.121094 177.925781 201.242188 177.535156 C 191.929688 176.636719 183.003906 176.4375 174.820312 176.640625 C 174.746094 176.746094 174.707031 176.800781 174.707031 176.800781 L 174.488281 176.652344 C 171.121094 176.738281 167.875 176.898438 164.789062 177.097656 C 159.363281 177.464844 154.390625 177.925781 150 178.460938 C 145.609375 178.988281 141.796875 179.5625 138.664062 180.089844 C 132.398438 181.144531 128.867188 182.003906 128.867188 182.003906 "/>
</g>
</g>
</g>
</g>
</svg>
